; NON-PLATED HOLES START AT T1
; THROUGH (PLATED) HOLES START AT T100
M48
INCH
T1C0.047244
T2C0.084000
T3C0.125000
T4C0.090000
T100C0.015748
T101C0.035000
T102C0.042000
T103C0.080000
T104C0.030000
T105C0.090551
T106C0.031496
T107C0.031497
T108C0.088356
T109C0.038000
T110C0.041333
T111C0.100000
T112C0.041361
T113C0.047244
%
T1
X042263Y017726
X007896Y018146
X040944Y019073
X007202Y017466
X006493Y016758
X041541Y018434
X042972Y017018
X008577Y018869
T2
X012436Y020931
X021007Y020968
X015783Y020931
X017661Y020968
T3
X010592Y018911
X005685Y004967
X039722Y004022
X039148Y018911
T4
X019739Y004882
X025039Y013682
X030339Y004882
T100
X024185Y003689
X018000Y007161
X019222Y006948
X028222Y017393
X038240Y013263
X031481Y009763
X019194Y007643
T101
X030260Y015319
X023614Y010748
X032382Y013198
X027432Y012491
X025538Y015171
X028476Y006998
X028600Y015728
X024604Y005420
X023189Y004006
X022200Y009334
X024494Y016121
X028846Y013905
X021775Y006834
X030877Y008000
X023494Y016121
X025311Y006127
X026018Y006834
X026018Y011077
X028846Y009663
X029553Y010370
X026790Y013918
X024604Y009663
X016401Y013708
X019446Y014635
X025311Y010370
X023189Y008248
X030968Y011784
X019401Y013708
X016446Y014635
X016629Y015762
X027347Y016980
X023896Y004713
X029553Y014612
X022482Y007541
X026725Y011784
X030260Y011077
X033713Y013400
X026725Y007541
X016629Y018762
X031675Y012491
X028139Y008956
X022907Y010041
X030597Y009119
X023896Y008956
X029751Y006822
X027432Y008248
X031592Y015521
X021068Y006127
X028139Y013198
T102
X016748Y011536
X016170Y012675
X028573Y018378
X019728Y011536
X019150Y012675
X031553Y018378
X023000Y018754
X024000Y018754
X025000Y018754
T103
X035239Y006782
X035239Y011882
T104
X022416Y015087
X022416Y016089
X030782Y016729
X028782Y016729
T105
X015606Y018124
X012603Y018124
X014109Y019631
X017828Y018161
X020831Y018161
X019334Y019668
T106
X031787Y019878
X030999Y020666
X030999Y019878
X030212Y020666
X031787Y020666
X030212Y019878
T107
X027540Y006130
X028236Y005434
T108
X005099Y023036
X046990Y020299
X044245Y023045
X002353Y020290
T109
X006356Y017578
X008105Y017258
X041421Y017555
X040714Y018262
X026871Y020412
X043179Y017811
X007063Y018285
X027871Y020412
X041765Y019225
X042128Y016848
X042472Y018518
X022871Y020412
X008812Y017965
X007770Y018992
X023871Y020412
X024871Y020412
X025871Y020412
X007397Y016550
T110
X042822Y020291
X005814Y019575
X043529Y019584
X005107Y018868
T111
X035188Y018797
X035188Y016397
X033288Y017597
T112
X044237Y018877
X006521Y020283
T113
X012332Y010210
X017204Y008122
X008986Y016400
X015812Y006730
X007630Y008168
X012466Y012920
X040509Y012994
X008953Y006766
X032811Y020272
X007594Y015008
X029188Y020272
X013724Y011602
X039117Y011602
X011041Y001894
X012433Y003286
X043989Y009514
X004150Y011648
X007561Y005374
X006238Y006776
X002758Y010256
X042597Y008122
X011074Y011528
T00
M30
